<svg version="1.1" xmlns="http://www.w3.org/2000/svg" viewBox="0 0 697.8561207926189 782.3269379324847" width="697.8561207926189" height="782.3269379324847">
  <!-- svg-source:excalidraw -->
  
  <defs>
    <style class="style-fonts">
      @font-face {
        font-family: "Virgil";
        src: url("https://excalidraw.com/Virgil.woff2");
      }
      @font-face {
        font-family: "Cascadia";
        src: url("https://excalidraw.com/Cascadia.woff2");
      }
      @font-face {
        font-family: "Assistant";
        src: url("https://excalidraw.com/Assistant-Regular.woff2");
      }
    </style>
    
  </defs>
  <rect x="0" y="0" width="697.8561207926189" height="782.3269379324847" fill="#ffffff"></rect><g stroke-linecap="round" transform="translate(62.90239706781472 169.49601749250724) rotate(0 181.90000915527344 301.41546021998874)"><path d="M32 0 C103.55 -0.58, 176.95 -0.31, 331.8 0 C351.37 -2.26, 366.66 11.12, 363.8 32 C368.78 208.69, 367.01 386.69, 363.8 570.83 C367.22 588.8, 351.33 604.19, 331.8 602.83 C236.46 600.84, 142.32 596.88, 32 602.83 C7.11 600.14, 3.56 589.88, 0 570.83 C-4.51 443.62, -4.67 316.88, 0 32 C-1.96 8.34, 11.45 -0.01, 32 0" stroke="none" stroke-width="0" fill="#ffec99"></path><path d="M32 0 C117.04 3.01, 202.92 1.03, 331.8 0 M32 0 C149.59 2.39, 268.3 1.16, 331.8 0 M331.8 0 C353.96 -1.74, 365.34 10.99, 363.8 32 M331.8 0 C352.94 -1.11, 362.87 12.39, 363.8 32 M363.8 32 C365.66 205.25, 365.24 377.99, 363.8 570.83 M363.8 32 C363.59 143.64, 364.02 255.7, 363.8 570.83 M363.8 570.83 C363.33 592.25, 353.25 601.37, 331.8 602.83 M363.8 570.83 C363.61 589.96, 353.49 600.98, 331.8 602.83 M331.8 602.83 C222.89 600.15, 114.5 601.91, 32 602.83 M331.8 602.83 C233.81 602.39, 135.63 602.78, 32 602.83 M32 602.83 C12.29 601.5, -1.27 591.85, 0 570.83 M32 602.83 C11.73 601.42, 0.18 592.01, 0 570.83 M0 570.83 C-0.41 430.38, 0.42 290.55, 0 32 M0 570.83 C-0.96 385.82, -0.86 200.79, 0 32 M0 32 C-0.18 11.41, 10.56 -1.66, 32 0 M0 32 C-2.16 11.53, 11.88 -0.09, 32 0" stroke="#1e1e1e" stroke-width="2" fill="none"></path></g><g stroke-linecap="round" transform="translate(119.68693444874134 201.21892383511295) rotate(0 123.5000228881836 26.000003814697266)"><path d="M13 0 C64.89 2.76, 120.66 0, 234 0 C239.68 -2.12, 250.52 6.04, 247 13 C243.9 17.13, 246.74 23.75, 247 39 C249.18 44.45, 245.45 50.38, 234 52 C154.88 51.38, 75.18 55.56, 13 52 C2.34 48.75, -0.17 46.47, 0 39 C0.01 30.48, 0.37 24.24, 0 13 C-3.11 3.24, 7.15 -3.08, 13 0" stroke="none" stroke-width="0" fill="#a5d8ff"></path><path d="M13 0 C99.05 -0.18, 185.47 -0.89, 234 0 M13 0 C91.72 -0.86, 172.73 -0.64, 234 0 M234 0 C241.87 -1.47, 246.4 3.12, 247 13 M234 0 C242.32 0.02, 244.91 3.34, 247 13 M247 13 C245.8 19.65, 246 27.8, 247 39 M247 13 C247.99 20, 247.23 27.96, 247 39 M247 39 C245.44 49.2, 241.46 50, 234 52 M247 39 C244.72 46.33, 240.42 51.69, 234 52 M234 52 C167.12 52.43, 97.31 51.17, 13 52 M234 52 C186.82 52.36, 140.18 52.74, 13 52 M13 52 C3.09 51.81, 1.32 46.31, 0 39 M13 52 C5.65 50.28, 0.3 49.51, 0 39 M0 39 C-1.07 30.38, -0.06 21.17, 0 13 M0 39 C0.76 30.77, 0.55 20.2, 0 13 M0 13 C-1 5.42, 3.71 0.54, 13 0 M0 13 C2.02 4.54, 4.97 0.57, 13 0" stroke="#1e1e1e" stroke-width="2" fill="none"></path></g><g transform="translate(152.44701287891712 214.7189276498102) rotate(0 90.73994445800781 12.5)"><text x="90.73994445800781" y="17.52" font-family="Virgil, Segoe UI Emoji" font-size="20px" fill="#1e1e1e" text-anchor="middle" style="white-space: pre;" direction="ltr" dominant-baseline="alphabetic">Получение запроса</text></g><g stroke-linecap="round" transform="translate(510.4654255143571 205.9998573968951) rotate(0 84.66664632161462 87.99996693929052)"><path d="M117.91 6.89 C128.52 10.16, 139.83 19.99, 147.58 28.85 C155.33 37.7, 160.8 49.01, 164.42 60 C168.03 70.99, 170.36 83.09, 169.29 94.8 C168.22 106.5, 163.46 119.73, 157.99 130.23 C152.53 140.73, 145.54 150.6, 136.51 157.82 C127.48 165.03, 115.18 170.92, 103.8 173.52 C92.43 176.12, 79.58 175.83, 68.25 173.43 C56.93 171.02, 45.18 165.93, 35.84 159.1 C26.5 152.28, 18.05 142.62, 12.22 132.49 C6.39 122.36, 2.31 110.03, 0.85 98.33 C-0.61 86.62, 0.13 73.54, 3.44 62.26 C6.75 50.98, 13.02 39.63, 20.71 30.65 C28.4 21.67, 39.22 13.36, 49.59 8.37 C59.96 3.38, 70.63 0.36, 82.91 0.73 C95.19 1.1, 115.52 8.19, 123.27 10.61 C131.01 13.03, 130.07 14.19, 129.4 15.26 M51.65 8.6 C61.33 3.08, 75.32 0.64, 86.88 0.73 C98.44 0.83, 110.73 4.29, 120.99 9.15 C131.26 14.01, 141.16 21.23, 148.48 29.92 C155.81 38.6, 161.49 50.09, 164.95 61.24 C168.42 72.4, 170.69 85.13, 169.27 96.84 C167.85 108.56, 162.31 120.84, 156.41 131.56 C150.5 142.27, 142.98 154.23, 133.83 161.13 C124.68 168.04, 112.56 171.06, 101.49 172.96 C90.42 174.86, 78.81 174.93, 67.4 172.55 C56 170.17, 42.35 165.59, 33.04 158.66 C23.72 151.73, 16.85 141.19, 11.51 130.97 C6.17 120.74, 2.37 109.21, 1.01 97.3 C-0.35 85.38, -0.15 70.87, 3.36 59.5 C6.87 48.12, 14 37.86, 22.05 29.07 C30.11 20.28, 46.7 9.93, 51.67 6.78 C56.64 3.63, 51.6 8.98, 51.89 10.18" stroke="none" stroke-width="0" fill="#69db7c"></path><path d="M45.17 10.66 C54.11 4.22, 67.24 1.61, 78.79 0.72 C90.34 -0.17, 103.67 1.35, 114.47 5.32 C125.27 9.29, 135.34 16.36, 143.58 24.54 C151.82 32.72, 159.57 43.45, 163.91 54.42 C168.25 65.39, 170.11 78.27, 169.64 90.36 C169.16 102.45, 166.02 116.03, 161.07 126.96 C156.12 137.89, 148.74 148.42, 139.95 155.94 C131.16 163.45, 119.48 168.89, 108.33 172.05 C97.17 175.21, 84.44 176.53, 73.02 174.9 C61.61 173.26, 49.73 168.55, 39.83 162.22 C29.93 155.9, 20.19 146.71, 13.62 136.94 C7.05 127.17, 2.39 115.34, 0.42 103.6 C-1.54 91.86, -1.05 78.17, 1.84 66.5 C4.72 54.83, 10.19 43.11, 17.74 33.56 C25.29 24.02, 41.83 13.02, 47.15 9.22 C52.46 5.41, 49.24 9.31, 49.64 10.72 M111.96 3.26 C122.74 5.52, 133.71 14.23, 142.01 22.52 C150.31 30.81, 157.38 41.9, 161.73 53 C166.09 64.1, 168.08 77.24, 168.15 89.13 C168.22 101.02, 166.67 113.55, 162.15 124.32 C157.63 135.08, 149.46 145.94, 141.03 153.72 C132.59 161.5, 122.44 167.13, 111.55 170.99 C100.66 174.84, 87.11 178.12, 75.67 176.84 C64.22 175.55, 52.91 169.52, 42.9 163.29 C32.88 157.06, 22.53 149.03, 15.6 139.46 C8.66 129.9, 3.68 117.39, 1.27 105.9 C-1.15 94.41, -1.5 82.45, 1.11 70.54 C3.71 58.62, 9.85 44.46, 16.87 34.39 C23.89 24.32, 33.46 15.56, 43.22 10.13 C52.98 4.7, 64.05 2.54, 75.44 1.81 C86.84 1.08, 105.52 4.86, 111.58 5.77 C117.63 6.67, 112.42 5.82, 111.77 7.24" stroke="#1e1e1e" stroke-width="2" fill="none"></path></g><g transform="translate(546.8937322232366 281.2744509692211) rotate(0 48.36997985839844 12.5)"><text x="48.36997985839844" y="17.52" font-family="Virgil, Segoe UI Emoji" font-size="20px" fill="#ffffff" text-anchor="middle" style="white-space: pre;" direction="ltr" dominant-baseline="alphabetic">BROWSER</text></g><g stroke-linecap="round" transform="translate(518.5228281493894 556.7364479870748) rotate(0 84.66664632161462 87.99996693929052)"><path d="M80.88 0.09 C91.62 -1.74, 104.3 1.45, 114.82 5.77 C125.33 10.09, 135.97 17.56, 143.95 26 C151.94 34.44, 158.66 45.46, 162.74 56.41 C166.81 67.36, 168.75 79.86, 168.42 91.68 C168.09 103.5, 165.95 116.66, 160.77 127.33 C155.6 137.99, 146.42 147.94, 137.37 155.67 C128.32 163.41, 117.45 170.52, 106.45 173.75 C95.46 176.99, 82.65 177.2, 71.38 175.06 C60.11 172.92, 48.58 167.53, 38.82 160.92 C29.06 154.3, 19.13 145.24, 12.83 135.39 C6.53 125.54, 2.67 113.56, 1 101.8 C-0.67 90.04, -0.09 76.4, 2.81 64.82 C5.71 53.24, 11.25 41.6, 18.42 32.32 C25.58 23.04, 34.2 14.37, 45.79 9.15 C57.38 3.92, 79.76 2.25, 87.98 0.97 C96.2 -0.32, 95.34 0.27, 95.11 1.46 M123.78 8.36 C133.95 12.2, 143.03 22.97, 149.9 32.37 C156.76 41.77, 161.75 53.03, 164.98 64.74 C168.2 76.45, 170.79 90.78, 169.24 102.62 C167.69 114.45, 162.31 125.97, 155.66 135.74 C149.01 145.51, 139.21 154.81, 129.33 161.26 C119.45 167.7, 107.67 172.28, 96.38 174.4 C85.09 176.52, 72.37 177.13, 61.58 173.97 C50.79 170.81, 40.32 163.17, 31.63 155.41 C22.93 147.65, 14.62 137.96, 9.43 127.43 C4.24 116.89, 1.31 104.24, 0.49 92.19 C-0.32 80.15, 0.36 66.25, 4.54 55.17 C8.73 44.1, 17.12 33.98, 25.59 25.76 C34.07 17.55, 44.6 10.22, 55.4 5.89 C66.19 1.56, 79.3 -0.75, 90.35 -0.22 C101.4 0.32, 116.46 7.4, 121.69 9.08 C126.92 10.76, 122.23 8.51, 121.71 9.85" stroke="none" stroke-width="0" fill="#ffa94d"></path><path d="M96.64 1.63 C107.58 2.1, 120.44 8.35, 130.3 14.6 C140.15 20.84, 149.53 29.39, 155.75 39.11 C161.97 48.83, 165.81 61.06, 167.63 72.89 C169.46 84.73, 169.42 98.38, 166.71 110.12 C164.01 121.87, 158.71 134.13, 151.4 143.35 C144.1 152.57, 133.16 160.09, 122.86 165.44 C112.55 170.79, 100.76 174.65, 89.59 175.43 C78.42 176.21, 66.49 174.16, 55.83 170.12 C45.16 166.08, 33.76 159.55, 25.58 151.2 C17.4 142.85, 11.12 131.24, 6.75 120 C2.39 108.76, -0.85 95.49, -0.62 83.75 C-0.39 72.01, 2.82 60.15, 8.15 49.56 C13.49 38.96, 22.34 27.79, 31.39 20.18 C40.44 12.56, 50.25 6.93, 62.44 3.87 C74.63 0.8, 96.63 1.52, 104.55 1.81 C112.46 2.1, 110.15 4.18, 109.95 5.61 M124.92 9.6 C135.17 13.82, 143.8 24.6, 150.53 33.94 C157.27 43.29, 162.13 54.49, 165.33 65.67 C168.52 76.84, 171.37 89.23, 169.7 101.01 C168.03 112.78, 161.86 126.18, 155.31 136.32 C148.76 146.47, 140.16 155.67, 130.4 161.87 C120.65 168.07, 108.13 171.8, 96.8 173.53 C85.46 175.26, 73.61 174.98, 62.4 172.24 C51.19 169.5, 38.23 164.64, 29.54 157.09 C20.86 149.54, 15.25 137.52, 10.28 126.93 C5.3 116.34, 0.31 105.45, -0.29 93.56 C-0.89 81.67, 2.49 66.83, 6.67 55.56 C10.85 44.29, 16.75 34.25, 24.79 25.94 C32.83 17.63, 44.21 10.09, 54.92 5.71 C65.64 1.34, 77.47 -0.79, 89.1 -0.31 C100.72 0.16, 118.9 6.54, 124.67 8.57 C130.45 10.59, 124.43 10.29, 123.72 11.84" stroke="#1e1e1e" stroke-width="2" fill="none"></path></g><g transform="translate(553.9211437083666 619.5110415594008) rotate(0 49.39997100830078 25)"><text x="49.39997100830078" y="17.52" font-family="Virgil, Segoe UI Emoji" font-size="20px" fill="#ffffff" text-anchor="middle" style="white-space: pre;" direction="ltr" dominant-baseline="alphabetic">POSTGRE</text><text x="49.39997100830078" y="42.519999999999996" font-family="Virgil, Segoe UI Emoji" font-size="20px" fill="#ffffff" text-anchor="middle" style="white-space: pre;" direction="ltr" dominant-baseline="alphabetic">SQL</text></g><g stroke-linecap="round" transform="translate(237.89394898673436 284.66637910506415) rotate(0 62.00002034505201 30.666681925455578)"><path d="M15.33 0 C31.78 -3.57, 52 -1.32, 108.67 0 C120.15 1.43, 126.89 1.84, 124 15.33 C126.98 26.99, 121.46 36.11, 124 46 C120.8 56.23, 116.56 64.45, 108.67 61.33 C85.72 60.89, 65.11 63.72, 15.33 61.33 C8.39 61.22, 3.15 59.68, 0 46 C-1.55 34.22, 0.82 30.95, 0 15.33 C-3.2 4.2, 6.24 3.6, 15.33 0" stroke="none" stroke-width="0" fill="#b2f2bb"></path><path d="M15.33 0 C48.35 -1.41, 80.79 -0.8, 108.67 0 M15.33 0 C39.23 1.43, 62.29 0.35, 108.67 0 M108.67 0 C117.08 -0.6, 125.13 4.08, 124 15.33 M108.67 0 C119.25 -1.38, 122.3 6.27, 124 15.33 M124 15.33 C121.87 24.05, 123.28 32.06, 124 46 M124 15.33 C123.37 25.06, 123.39 34.19, 124 46 M124 46 C122.54 54.78, 118.81 62.36, 108.67 61.33 M124 46 C123.49 56.86, 119.81 62.8, 108.67 61.33 M108.67 61.33 C78.05 61.98, 48.29 60.28, 15.33 61.33 M108.67 61.33 C77.02 60.58, 46.65 60.64, 15.33 61.33 M15.33 61.33 C3.48 61.09, 1 57.64, 0 46 M15.33 61.33 C4.81 63.57, -1.36 55.35, 0 46 M0 46 C1.23 36, 0.7 24.15, 0 15.33 M0 46 C-0.38 33.97, 0.02 22.07, 0 15.33 M0 15.33 C-1.57 5.53, 6.51 -1.09, 15.33 0 M0 15.33 C1.1 5.48, 3.31 0.1, 15.33 0" stroke="#1e1e1e" stroke-width="2" fill="none"></path></g><g transform="translate(271.93400076489183 302.8330610305193) rotate(0 27.95996856689453 12.5)"><text x="27.95996856689453" y="17.52" font-family="Virgil, Segoe UI Emoji" font-size="20px" fill="#1e1e1e" text-anchor="middle" style="white-space: pre;" direction="ltr" dominant-baseline="alphabetic">logger</text></g><g stroke-linecap="round" transform="translate(238.32251024278003 364.71401922434234) rotate(0 62.00002034505201 30.666681925455578)"><path d="M15.33 0 C46.38 3.89, 72.77 1.24, 108.67 0 C116.11 -2.92, 123.4 6.8, 124 15.33 C126.37 29.71, 126.02 36.44, 124 46 C120.55 55.68, 117.21 61.35, 108.67 61.33 C72.48 58.8, 34.74 60.78, 15.33 61.33 C8.58 61.58, -2.35 54.52, 0 46 C-1.24 31.56, 2.97 19.74, 0 15.33 C1.44 7.12, 6.67 2.59, 15.33 0" stroke="none" stroke-width="0" fill="#b2f2bb"></path><path d="M15.33 0 C44.96 -0.59, 78.8 0.97, 108.67 0 M15.33 0 C34.93 0.45, 54.79 -0.26, 108.67 0 M108.67 0 C119.86 -0.18, 125.29 6.06, 124 15.33 M108.67 0 C117.37 2.26, 124.94 6.78, 124 15.33 M124 15.33 C123.32 22.43, 124.69 31.45, 124 46 M124 15.33 C124.82 22.35, 123.94 28.2, 124 46 M124 46 C122.89 57.89, 119.35 60.87, 108.67 61.33 M124 46 C125.99 56.9, 117.44 63.26, 108.67 61.33 M108.67 61.33 C79.74 62.47, 48.12 60.45, 15.33 61.33 M108.67 61.33 C82.65 60.78, 55.43 60.65, 15.33 61.33 M15.33 61.33 C5.85 61.49, -0.43 56.45, 0 46 M15.33 61.33 C7.24 59.64, 0.25 58.44, 0 46 M0 46 C0.97 34.35, 0.92 25.62, 0 15.33 M0 46 C-1.1 39.49, 0.13 32.73, 0 15.33 M0 15.33 C1.33 5.88, 4.59 0.09, 15.33 0 M0 15.33 C0.8 7.06, 3.33 -2.05, 15.33 0" stroke="#1e1e1e" stroke-width="2" fill="none"></path></g><g transform="translate(277.3825510346094 382.88070114979837) rotate(0 22.939979553222656 12.5)"><text x="22.939979553222656" y="17.52" font-family="Virgil, Segoe UI Emoji" font-size="20px" fill="#1e1e1e" text-anchor="middle" style="white-space: pre;" direction="ltr" dominant-baseline="alphabetic">auth</text></g><g stroke-linecap="round"><g transform="translate(205.17975191874734 286.52358445058144) rotate(0 0.415327445451112 67.84545068460238)"><path d="M-0.54 -0.53 C-0.62 22.17, 0.12 113.44, 0.1 136.22 M1.38 1.81 C1.19 24.16, 0.18 112.43, -0.25 134.48" stroke="#1e1e1e" stroke-width="2" fill="none"></path></g></g><mask></mask><g stroke-linecap="round"><g transform="translate(203.816106043138 356.4164360447885) rotate(0 -20.77624250971178 -0.7648575633766086)"><path d="M-0.47 -0.08 C-7.42 -0.16, -34.75 -0.51, -41.68 -0.57 M0.3 -0.59 C-6.7 -0.84, -34.75 -1.32, -41.85 -1.45" stroke="#1e1e1e" stroke-width="2" fill="none"></path></g></g><mask></mask><g transform="translate(68.94553338020842 342.5982708725587) rotate(0 41.68721008300781 10.318187366832262)"><text x="41.68721008300781" y="14.461971413352094" font-family="Virgil, Segoe UI Emoji" font-size="16.509099786931614px" fill="#1e1e1e" text-anchor="middle" style="white-space: pre;" direction="ltr" dominant-baseline="alphabetic">middleware</text></g><g mask="url(#mask-q0yfICOzeKFCoNyFXuF3I)" stroke-linecap="round"><g transform="translate(589.997940870908 205.87098982230964) rotate(0 -175.60590629167268 -44.44681047291124)"><path d="M-0.41 -0.24 C-11.91 -12.24, -18.33 -56.81, -68.84 -70.83 C-119.34 -84.86, -256.12 -94.68, -303.42 -84.39 C-350.73 -74.1, -344.45 -21.54, -352.68 -9.11 M1.58 -1.41 C-9.59 -12.79, -15.84 -56.15, -66.75 -69.83 C-117.67 -83.5, -256.22 -93.74, -303.89 -83.47 C-351.56 -73.2, -344.94 -20.46, -352.79 -8.21" stroke="#1e1e1e" stroke-width="2" fill="none"></path></g><g transform="translate(589.997940870908 205.87098982230964) rotate(0 -175.60590629167268 -44.44681047291124)"><path d="M-355.29 -33.08 C-354.65 -27.21, -355.15 -16.39, -352.79 -8.21 M-355.29 -33.08 C-355.5 -28.08, -353.28 -21.96, -352.79 -8.21" stroke="#1e1e1e" stroke-width="2" fill="none"></path></g><g transform="translate(589.997940870908 205.87098982230964) rotate(0 -175.60590629167268 -44.44681047291124)"><path d="M-338.71 -28.87 C-343.36 -24.38, -349.1 -14.89, -352.79 -8.21 M-338.71 -28.87 C-342.83 -24.91, -344.55 -19.8, -352.79 -8.21" stroke="#1e1e1e" stroke-width="2" fill="none"></path></g></g><mask id="mask-q0yfICOzeKFCoNyFXuF3I"><rect x="0" y="0" fill="#fff" width="1041.997979711462" height="389.50734652286064"></rect><rect x="386.73686891061357" y="107.64959108699713" fill="#000" width="30.459976196289062" height="25" opacity="1"></rect></mask><g transform="translate(386.73686891061357 107.64959108699713) rotate(0 27.65516566862175 53.77458826240127)"><text x="15.229988098144531" y="17.52" font-family="Virgil, Segoe UI Emoji" font-size="20px" fill="#1e1e1e" text-anchor="middle" style="white-space: pre;" direction="ltr" dominant-baseline="alphabetic">req</text></g><g stroke-linecap="round"><g transform="translate(288.56606649712603 256.3892854427004) rotate(0 8.441606649381924 12.902042891726069)"><path d="M-0.26 0.16 C2.1 4.38, 12.07 21.07, 14.92 25.63 M1.81 -0.8 C4.46 3.5, 14.67 22.2, 17.14 26.6" stroke="#1e1e1e" stroke-width="2" fill="none"></path></g><g transform="translate(288.56606649712603 256.3892854427004) rotate(0 8.441606649381924 12.902042891726069)"><path d="M5.43 16.4 C9.97 18.96, 12.67 25.2, 17.14 26.6 M5.43 16.4 C10.3 20.67, 14.72 23.73, 17.14 26.6" stroke="#1e1e1e" stroke-width="2" fill="none"></path></g><g transform="translate(288.56606649712603 256.3892854427004) rotate(0 8.441606649381924 12.902042891726069)"><path d="M14.73 11.26 C15.86 15.69, 15.15 23.82, 17.14 26.6 M14.73 11.26 C16.16 17.51, 17.15 22.46, 17.14 26.6" stroke="#1e1e1e" stroke-width="2" fill="none"></path></g></g><mask></mask><g stroke-linecap="round"><g transform="translate(308.59510382261556 348.1891273983456) rotate(0 -7.792553251289291 7.820881717147586)"><path d="M1.09 0.09 C-1.48 2.96, -13 13.86, -15.59 16.55 M0.2 -0.91 C-2.54 1.69, -14.18 12.37, -16.67 14.89" stroke="#1e1e1e" stroke-width="2" fill="none"></path></g><g transform="translate(308.59510382261556 348.1891273983456) rotate(0 -7.792553251289291 7.820881717147586)"><path d="M-11.81 5.07 C-13.18 7.69, -13.84 11.55, -16.67 14.89 M-11.81 5.07 C-13.26 8.89, -15.57 11.53, -16.67 14.89" stroke="#1e1e1e" stroke-width="2" fill="none"></path></g><g transform="translate(308.59510382261556 348.1891273983456) rotate(0 -7.792553251289291 7.820881717147586)"><path d="M-6.64 10.49 C-9.45 11.6, -11.6 13.91, -16.67 14.89 M-6.64 10.49 C-9.93 12.41, -14.03 13.16, -16.67 14.89" stroke="#1e1e1e" stroke-width="2" fill="none"></path></g></g><mask></mask><g stroke-linecap="round" transform="translate(120.75545860747911 451.5665546900882) rotate(0 124.44676298244758 34.542254797725036)"><path d="M17.27 0 C60.22 0.01, 106.25 2.18, 231.62 0 C245.5 -3.33, 246.97 7.76, 248.89 17.27 C247.49 31.85, 246.57 44.78, 248.89 51.81 C247.7 64.62, 239.55 72.52, 231.62 69.08 C154.19 69.61, 77.41 71.86, 17.27 69.08 C7.33 68.18, -2.95 62.63, 0 51.81 C1.66 39.74, -2.23 31.19, 0 17.27 C-2.66 4.2, 6.89 -2.31, 17.27 0" stroke="none" stroke-width="0" fill="#d0bfff"></path><path d="M17.27 0 C89.89 0.16, 163.61 -0.66, 231.62 0 M17.27 0 C71.49 -0.36, 125.84 -0.91, 231.62 0 M231.62 0 C243.49 -1.1, 247.11 4.25, 248.89 17.27 M231.62 0 C242.96 2, 246.84 7.01, 248.89 17.27 M248.89 17.27 C249.86 30.27, 249.16 44.46, 248.89 51.81 M248.89 17.27 C248.85 30.11, 248.34 43.02, 248.89 51.81 M248.89 51.81 C247.18 62, 244.5 69.19, 231.62 69.08 M248.89 51.81 C248.84 61.12, 241.47 70.14, 231.62 69.08 M231.62 69.08 C163.32 70.67, 93.62 69.08, 17.27 69.08 M231.62 69.08 C187.68 70.33, 142.06 69.84, 17.27 69.08 M17.27 69.08 C7.38 68, 1.19 62.95, 0 51.81 M17.27 69.08 C7.52 70.67, -1.82 64.03, 0 51.81 M0 51.81 C-0.59 38.04, 1.39 25.12, 0 17.27 M0 51.81 C-0.71 38.67, -0.5 23.77, 0 17.27 M0 17.27 C0.14 5.36, 4.07 -1.45, 17.27 0 M0 17.27 C1.48 7.4, 5.56 1.18, 17.27 0" stroke="#1e1e1e" stroke-width="2" fill="none"></path></g><g transform="translate(210.65225668514154 473.60880948781323) rotate(0 34.549964904785156 12.5)"><text x="34.549964904785156" y="17.52" font-family="Virgil, Segoe UI Emoji" font-size="20px" fill="#1e1e1e" text-anchor="middle" style="white-space: pre;" direction="ltr" dominant-baseline="alphabetic">Routes</text></g><g stroke-linecap="round"><g transform="translate(295.8326587566751 428.8538945943228) rotate(0 -24.31885776916056 11.11184754432361)"><path d="M0.36 0.81 C-7.84 4.44, -40 17.38, -48.12 20.61 M-0.92 0.18 C-9.34 4.11, -40.95 18.55, -48.99 22.04" stroke="#1e1e1e" stroke-width="2" fill="none"></path></g><g transform="translate(295.8326587566751 428.8538945943228) rotate(0 -24.31885776916056 11.11184754432361)"><path d="M-31.04 4.64 C-36.8 11.65, -45.41 17.93, -48.99 22.04 M-31.04 4.64 C-35.98 8.88, -40.08 12.35, -48.99 22.04" stroke="#1e1e1e" stroke-width="2" fill="none"></path></g><g transform="translate(295.8326587566751 428.8538945943228) rotate(0 -24.31885776916056 11.11184754432361)"><path d="M-24.06 20.25 C-32.35 21.26, -43.65 21.52, -48.99 22.04 M-24.06 20.25 C-30.62 20.67, -36.43 20.3, -48.99 22.04" stroke="#1e1e1e" stroke-width="2" fill="none"></path></g></g><mask></mask><g stroke-linecap="round" transform="translate(122.648156214864 548.0957211060149) rotate(0 50.63041911630228 39.27407101797371)"><path d="M19.64 0 C37.66 2.87, 60.08 3.4, 81.62 0 C95.72 -0.58, 99.23 9.92, 101.26 19.64 C105.12 30.22, 104.64 40.04, 101.26 58.91 C103.18 73.26, 97.72 77.55, 81.62 78.55 C64.54 75.58, 50.05 79.16, 19.64 78.55 C7.55 80.09, 3.37 69.26, 0 58.91 C2.44 41.81, 2.97 34.12, 0 19.64 C1.02 9.56, 5.54 -3.47, 19.64 0" stroke="none" stroke-width="0" fill="#ffd8a8"></path><path d="M19.64 0 C38.61 1.27, 54.91 1.04, 81.62 0 M19.64 0 C38.37 -0.29, 56.31 -0.1, 81.62 0 M81.62 0 C93.71 -0.6, 101.9 7.31, 101.26 19.64 M81.62 0 C94.35 0.49, 102.44 8.76, 101.26 19.64 M101.26 19.64 C103.09 31.65, 100.06 38.97, 101.26 58.91 M101.26 19.64 C100.77 30.66, 102.35 41.08, 101.26 58.91 M101.26 58.91 C102.96 73.97, 95.73 79.35, 81.62 78.55 M101.26 58.91 C99.86 70.31, 96.37 79.14, 81.62 78.55 M81.62 78.55 C61.9 80.65, 41.96 77.77, 19.64 78.55 M81.62 78.55 C63.91 78.23, 47.44 78.04, 19.64 78.55 M19.64 78.55 C7.58 80.35, 1.74 70.11, 0 58.91 M19.64 78.55 C8.24 77.97, -0.08 73.68, 0 58.91 M0 58.91 C1.24 45.62, 1.6 30.13, 0 19.64 M0 58.91 C-0.03 46.8, -0.24 35.18, 0 19.64 M0 19.64 C1.6 7.6, 6.79 -1.63, 19.64 0 M0 19.64 C-0.86 5.78, 5.77 2.06, 19.64 0" stroke="#1e1e1e" stroke-width="2" fill="none"></path></g><g transform="translate(130.40861836095144 562.3697921239891) rotate(0 42.86995697021479 25)"><text x="42.869956970214844" y="17.52" font-family="Virgil, Segoe UI Emoji" font-size="20px" fill="#1e1e1e" text-anchor="middle" style="white-space: pre;" direction="ltr" dominant-baseline="alphabetic">Controlle</text><text x="42.869956970214844" y="42.519999999999996" font-family="Virgil, Segoe UI Emoji" font-size="20px" fill="#1e1e1e" text-anchor="middle" style="white-space: pre;" direction="ltr" dominant-baseline="alphabetic">rs</text></g><g stroke-linecap="round" transform="translate(270.7540002985545 547.1493542518756) rotate(0 46.84498780063916 39.27407101797371)"><path d="M19.64 0 C38.63 -1.87, 58.38 -2.2, 74.05 0 C86.66 3.24, 93.91 3.09, 93.69 19.64 C91.95 34.63, 93.06 51.65, 93.69 58.91 C90.26 71.8, 85.82 78.3, 74.05 78.55 C58.29 80.2, 46.92 78.66, 19.64 78.55 C2.98 79.04, -1.3 71.52, 0 58.91 C-0.29 50.61, 2.55 38.95, 0 19.64 C1.75 5.7, 6.02 -0.65, 19.64 0" stroke="none" stroke-width="0" fill="#ffd8a8"></path><path d="M19.64 0 C39.73 -0.44, 57.69 1.78, 74.05 0 M19.64 0 C31.84 -0.28, 42.73 -0.36, 74.05 0 M74.05 0 C88.31 -1.03, 94.74 8.33, 93.69 19.64 M74.05 0 C85.74 0.63, 93.24 8.57, 93.69 19.64 M93.69 19.64 C94.77 33.78, 95.21 49.96, 93.69 58.91 M93.69 19.64 C93.88 31.88, 92.9 45.01, 93.69 58.91 M93.69 58.91 C94.98 73.47, 86.62 78.14, 74.05 78.55 M93.69 58.91 C92.15 73.06, 86.53 77.65, 74.05 78.55 M74.05 78.55 C58.8 76.77, 38.9 80.05, 19.64 78.55 M74.05 78.55 C61.16 78.83, 48.67 77.29, 19.64 78.55 M19.64 78.55 C7.61 78.63, 0.4 73.63, 0 58.91 M19.64 78.55 C4.27 79, -2.14 73.35, 0 58.91 M0 58.91 C0.65 47.53, 2.14 37.8, 0 19.64 M0 58.91 C0.3 48.38, -0.81 38.48, 0 19.64 M0 19.64 C1.59 5.07, 8.53 0.19, 19.64 0 M0 19.64 C-1.39 7.81, 6.67 0.95, 19.64 0" stroke="#1e1e1e" stroke-width="2" fill="none"></path></g><g transform="translate(278.4090314341547 573.9234252698498) rotate(0 39.18995666503906 12.5)"><text x="39.18995666503906" y="17.52" font-family="Virgil, Segoe UI Emoji" font-size="20px" fill="#1e1e1e" text-anchor="middle" style="white-space: pre;" direction="ltr" dominant-baseline="alphabetic">Services</text></g><g stroke-linecap="round"><g transform="translate(168.07354860817873 522.5439423973867) rotate(0 3.2278605975176333 10.154084066230098)"><path d="M0.5 -0.17 C1.53 3.26, 5.41 17.62, 6.37 21.04 M0.09 -0.73 C1.01 2.77, 4.59 16.61, 5.8 20.19" stroke="#1e1e1e" stroke-width="2" fill="none"></path></g><g transform="translate(168.07354860817873 522.5439423973867) rotate(0 3.2278605975176333 10.154084066230098)"><path d="M-0.68 11.4 C1.35 14.04, 3.89 16.86, 5.8 20.19 M-0.68 11.4 C0.58 13.56, 2.06 15.27, 5.8 20.19" stroke="#1e1e1e" stroke-width="2" fill="none"></path></g><g transform="translate(168.07354860817873 522.5439423973867) rotate(0 3.2278605975176333 10.154084066230098)"><path d="M6.49 9.29 C6.14 12.66, 6.3 16.19, 5.8 20.19 M6.49 9.29 C6.19 11.89, 6.12 14.06, 5.8 20.19" stroke="#1e1e1e" stroke-width="2" fill="none"></path></g></g><mask></mask><g stroke-linecap="round"><g transform="translate(226.74807695943923 569.8621045998725) rotate(0 19.780029296609882 -0.48319881190172964)"><path d="M0.49 0.29 C6.93 0.15, 32.1 -0.34, 38.43 -0.51 M0.08 -0.04 C6.7 -0.36, 33.16 -0.97, 39.48 -1.25" stroke="#1e1e1e" stroke-width="2" fill="none"></path></g><g transform="translate(226.74807695943923 569.8621045998725) rotate(0 19.780029296609882 -0.48319881190172964)"><path d="M21.47 5.97 C26.8 3.3, 31.92 1.5, 39.48 -1.25 M21.47 5.97 C27.29 3.39, 33.79 1.58, 39.48 -1.25" stroke="#1e1e1e" stroke-width="2" fill="none"></path></g><g transform="translate(226.74807695943923 569.8621045998725) rotate(0 19.780029296609882 -0.48319881190172964)"><path d="M21.04 -7.29 C26.53 -6.4, 31.76 -4.62, 39.48 -1.25 M21.04 -7.29 C26.96 -5.46, 33.6 -2.86, 39.48 -1.25" stroke="#1e1e1e" stroke-width="2" fill="none"></path></g></g><mask></mask><g stroke-linecap="round"><g transform="translate(269.3344229416764 600.145699528749) rotate(0 -18.01627385167842 -0.03779213015332061)"><path d="M-0.13 -0.42 C-6.29 -0.46, -30.5 0.13, -36.58 0.22 M0.81 0.56 C-5.43 0.58, -30.57 -0.68, -36.84 -0.63" stroke="#1e1e1e" stroke-width="2" fill="none"></path></g><g transform="translate(269.3344229416764 600.145699528749) rotate(0 -18.01627385167842 -0.03779213015332061)"><path d="M-19.35 -6.51 C-26.52 -3.79, -31.95 -1.68, -36.84 -0.63 M-19.35 -6.51 C-24.83 -4.76, -30.68 -2.84, -36.84 -0.63" stroke="#1e1e1e" stroke-width="2" fill="none"></path></g><g transform="translate(269.3344229416764 600.145699528749) rotate(0 -18.01627385167842 -0.03779213015332061)"><path d="M-19.66 6.11 C-26.77 4.14, -32.08 1.57, -36.84 -0.63 M-19.66 6.11 C-25.02 3.74, -30.77 1.54, -36.84 -0.63" stroke="#1e1e1e" stroke-width="2" fill="none"></path></g></g><mask></mask><g stroke-linecap="round" transform="translate(177.53714494778296 666.3912349149068) rotate(0 71.45041770557441 34.54223674727882)"><path d="M17.27 0 C60.11 1.38, 101.35 1.13, 125.63 0 C134.62 2.68, 145.2 7.06, 142.9 17.27 C140.36 22.99, 142.99 35.61, 142.9 51.81 C144.9 63.28, 133.8 70.68, 125.63 69.08 C84.61 67.78, 49.07 68.86, 17.27 69.08 C6.21 68.71, -1.28 62.44, 0 51.81 C0.04 45.36, 0.45 31.33, 0 17.27 C-2.07 8.18, 5.54 -2.76, 17.27 0" stroke="none" stroke-width="0" fill="#fcc2d7"></path><path d="M17.27 0 C56.37 0.8, 93.06 0.08, 125.63 0 M17.27 0 C49.04 -1.23, 79.97 -0.94, 125.63 0 M125.63 0 C138.07 1.52, 140.98 4.83, 142.9 17.27 M125.63 0 C139.01 -2.29, 143.02 5.29, 142.9 17.27 M142.9 17.27 C143.12 27.31, 144.47 34.23, 142.9 51.81 M142.9 17.27 C142.62 24.34, 142.6 32.14, 142.9 51.81 M142.9 51.81 C142.35 63.59, 135.28 69.04, 125.63 69.08 M142.9 51.81 C141.94 65.46, 137.54 70.61, 125.63 69.08 M125.63 69.08 C94.31 68.08, 64.17 67.83, 17.27 69.08 M125.63 69.08 C85.55 70.75, 46.18 69.04, 17.27 69.08 M17.27 69.08 C4.18 67.24, 0.32 63.72, 0 51.81 M17.27 69.08 C7.2 66.82, 0.09 64.24, 0 51.81 M0 51.81 C0.56 43.92, 0.21 34.87, 0 17.27 M0 51.81 C-0.58 44.6, -0.97 35.47, 0 17.27 M0 17.27 C0.73 6.91, 3.86 0.13, 17.27 0 M0 17.27 C1.42 4.41, 7.75 1.79, 17.27 0" stroke="#1e1e1e" stroke-width="2" fill="none"></path></g><g transform="translate(210.12760018997847 688.4334716621861) rotate(0 38.859962463378906 12.5)"><text x="38.859962463378906" y="17.52" font-family="Virgil, Segoe UI Emoji" font-size="20px" fill="#1e1e1e" text-anchor="middle" style="white-space: pre;" direction="ltr" dominant-baseline="alphabetic">ApiError</text></g><g stroke-linecap="round"><g transform="translate(175.64448344129073 626.6438992428557) rotate(0 23.791077782636876 20.146215732113433)"><path d="M0.23 0.02 C8.35 6.7, 40.42 33.25, 48.7 39.77 M-1.11 -1.02 C6.82 5.9, 39.05 34.45, 47.48 41.31" stroke="#e03131" stroke-width="2" fill="none"></path></g><g transform="translate(175.64448344129073 626.6438992428557) rotate(0 23.791077782636876 20.146215732113433)"><path d="M24.06 32.55 C30.95 34.23, 37.85 38.74, 47.48 41.31 M24.06 32.55 C29.79 35.09, 36.31 36.19, 47.48 41.31" stroke="#e03131" stroke-width="2" fill="none"></path></g><g transform="translate(175.64448344129073 626.6438992428557) rotate(0 23.791077782636876 20.146215732113433)"><path d="M35.17 19.55 C38.76 25.07, 42.39 33.41, 47.48 41.31 M35.17 19.55 C38.17 25.4, 41.91 29.74, 47.48 41.31" stroke="#e03131" stroke-width="2" fill="none"></path></g></g><mask></mask><g stroke-linecap="round"><g transform="translate(318.54531885243955 626.6438992428557) rotate(0 -23.40627772361256 18.477275270321115)"><path d="M-1.09 -0.86 C-9.06 5.19, -38.88 30.36, -46.72 36.82 M0.54 1.31 C-7.63 7.41, -39.66 31.49, -47.35 37.81" stroke="#e03131" stroke-width="2" fill="none"></path></g><g transform="translate(318.54531885243955 626.6438992428557) rotate(0 -23.40627772361256 18.477275270321115)"><path d="M-34.1 16.61 C-40.62 25.79, -46.09 31.8, -47.35 37.81 M-34.1 16.61 C-37.91 24.02, -42.05 28.79, -47.35 37.81" stroke="#e03131" stroke-width="2" fill="none"></path></g><g transform="translate(318.54531885243955 626.6438992428557) rotate(0 -23.40627772361256 18.477275270321115)"><path d="M-23.57 30.09 C-34.27 33.9, -43.86 34.63, -47.35 37.81 M-23.57 30.09 C-30.56 33.4, -37.91 34.05, -47.35 37.81" stroke="#e03131" stroke-width="2" fill="none"></path></g></g><mask></mask><g stroke-linecap="round"><g transform="translate(193.4167737912278 627.1747417786328) rotate(0 107.58151324996908 -272.5486503958314)"><path d="M-0.58 -0.24 C-15.07 5.62, -59.19 49.29, -88.07 35.96 C-116.95 22.64, -166.4 10.92, -173.88 -80.21 C-181.35 -171.34, -204.42 -427.99, -132.92 -510.81 C-61.41 -593.63, 166.78 -592.07, 255.17 -577.13 C343.56 -562.2, 373.71 -447.09, 397.43 -421.21 M1.31 -1.41 C-13.13 4.58, -59.15 51, -88.4 37.51 C-117.64 24.02, -166.87 9.35, -174.16 -82.36 C-181.46 -174.07, -203.56 -430.4, -132.16 -512.75 C-60.76 -595.1, 165.78 -591.57, 254.24 -576.46 C342.7 -561.35, 374.63 -448.23, 398.58 -422.11" stroke="#2f9e44" stroke-width="2" fill="none"></path></g><g transform="translate(193.4167737912278 627.1747417786328) rotate(0 107.58151324996908 -272.5486503958314)"><path d="M379.21 -437.92 C382.84 -432.65, 387.19 -429.89, 398.58 -422.11 M379.21 -437.92 C386.61 -432.42, 391.74 -427.42, 398.58 -422.11" stroke="#2f9e44" stroke-width="2" fill="none"></path></g><g transform="translate(193.4167737912278 627.1747417786328) rotate(0 107.58151324996908 -272.5486503958314)"><path d="M393.9 -446.67 C394.62 -439.7, 395.99 -435.17, 398.58 -422.11 M393.9 -446.67 C396.51 -438.14, 396.78 -430.24, 398.58 -422.11" stroke="#2f9e44" stroke-width="2" fill="none"></path></g></g><mask></mask><g transform="translate(208.80623573354205 10) rotate(0 78.15995025634766 12.5)"><text x="78.15995025634766" y="17.52" font-family="Virgil, Segoe UI Emoji" font-size="20px" fill="#2f9e44" text-anchor="middle" style="white-space: pre;" direction="ltr" dominant-baseline="alphabetic">data: {obj, obj}</text></g><g stroke-linecap="round"><g transform="translate(321.50915018378623 708.5670266366151) rotate(0 98.98109589617184 -169.68436557368705)"><path d="M1.11 0.43 C24.68 -0.34, 109.25 55.17, 142.01 -5.29 C174.78 -65.75, 188.44 -302.75, 197.72 -362.33 M0.24 -0.4 C24.1 -1.41, 111.39 53.32, 144.15 -6.84 C176.91 -67.01, 187.84 -302.15, 196.78 -361.38" stroke="#e03131" stroke-width="2" fill="none"></path></g><g transform="translate(321.50915018378623 708.5670266366151) rotate(0 98.98109589617184 -169.68436557368705)"><path d="M202.96 -337.16 C201.62 -347.49, 200.56 -354.77, 196.78 -361.38 M202.96 -337.16 C200.54 -343.98, 199.44 -349.02, 196.78 -361.38" stroke="#e03131" stroke-width="2" fill="none"></path></g><g transform="translate(321.50915018378623 708.5670266366151) rotate(0 98.98109589617184 -169.68436557368705)"><path d="M185.94 -338.86 C190.61 -348.74, 195.55 -355.43, 196.78 -361.38 M185.94 -338.86 C187.61 -345.11, 190.6 -349.74, 196.78 -361.38" stroke="#e03131" stroke-width="2" fill="none"></path></g></g><mask></mask><g mask="url(#mask-3MYEfnlMbA37LvwmOfG4i)" stroke-linecap="round"><g transform="translate(366.23168726757285 392.9540277445967) rotate(0 40.85581854348152 149.99388474050238)"><path d="M0.95 1.19 C19.34 16.95, 93.17 50.1, 109.32 94.27 C125.47 138.43, 122.33 232.21, 97.85 266.16 C73.36 300.12, -15.08 292.89, -37.58 297.98 M-0.02 0.77 C18.37 16.73, 92.5 51.77, 108.75 95.65 C124.99 139.53, 121.86 230.1, 97.47 264.02 C73.07 297.95, -14.92 293.8, -37.6 299.22" stroke="#e03131" stroke-width="2" fill="none"></path></g><g transform="translate(366.23168726757285 392.9540277445967) rotate(0 40.85581854348152 149.99388474050238)"><path d="M-15.12 288.3 C-17.96 291.99, -25.22 294.36, -37.6 299.22 M-15.12 288.3 C-22.69 291.1, -30.95 295.4, -37.6 299.22" stroke="#e03131" stroke-width="2" fill="none"></path></g><g transform="translate(366.23168726757285 392.9540277445967) rotate(0 40.85581854348152 149.99388474050238)"><path d="M-13.36 305.31 C-16.53 305.38, -24.17 304.13, -37.6 299.22 M-13.36 305.31 C-21.44 302.47, -30.28 301.12, -37.6 299.22" stroke="#e03131" stroke-width="2" fill="none"></path></g></g><mask id="mask-3MYEfnlMbA37LvwmOfG4i"><rect x="0" y="0" fill="#fff" width="611.899191472136" height="790.6780118031011"></rect><rect x="461.19048693448144" y="563.6258040272305" fill="#000" width="47.8199462890625" height="25" opacity="1"></rect></mask><g transform="translate(461.19048693448144 563.6258040272305) rotate(0 -54.10298112342707 -20.67789154213142)"><text x="23.90997314453125" y="17.52" font-family="Virgil, Segoe UI Emoji" font-size="20px" fill="#e03131" text-anchor="middle" style="white-space: pre;" direction="ltr" dominant-baseline="alphabetic">error</text></g><g stroke-linecap="round"><g transform="translate(520.9540028511335 671.4635209384205) rotate(0 -74.69147539291589 -27.89306546752141)"><path d="M0.96 0.04 C-24.13 -9.4, -125.22 -46.6, -150.35 -55.83 M0.01 -0.98 C-24.74 -10.31, -123.02 -45.6, -148.14 -54.41" stroke="#1e1e1e" stroke-width="2" fill="none"></path></g><g transform="translate(520.9540028511335 671.4635209384205) rotate(0 -74.69147539291589 -27.89306546752141)"><path d="M-123.14 -54.59 C-131.04 -55.95, -139.43 -54.93, -148.14 -54.41 M-123.14 -54.59 C-130.47 -54.06, -140.01 -53.67, -148.14 -54.41" stroke="#1e1e1e" stroke-width="2" fill="none"></path></g><g transform="translate(520.9540028511335 671.4635209384205) rotate(0 -74.69147539291589 -27.89306546752141)"><path d="M-128.87 -38.48 C-135.05 -45.01, -141.62 -49.13, -148.14 -54.41 M-128.87 -38.48 C-134.29 -43.17, -141.96 -48.02, -148.14 -54.41" stroke="#1e1e1e" stroke-width="2" fill="none"></path></g></g><mask></mask><g stroke-linecap="round"><g transform="translate(371.577519184161 576.6566259462861) rotate(0 72.14057182960073 29.565546324929528)"><path d="M0.05 -0.75 C24.25 9.16, 121.32 49.64, 145.66 59.88 M-1.38 1.48 C22.63 10.97, 120.27 48.32, 144.76 57.89" stroke="#1e1e1e" stroke-width="2" fill="none"></path></g><g transform="translate(371.577519184161 576.6566259462861) rotate(0 72.14057182960073 29.565546324929528)"><path d="M119.77 57.4 C126.97 57.71, 137.08 58.56, 144.76 57.89 M119.77 57.4 C128.52 57.61, 138.3 57.53, 144.76 57.89" stroke="#1e1e1e" stroke-width="2" fill="none"></path></g><g transform="translate(371.577519184161 576.6566259462861) rotate(0 72.14057182960073 29.565546324929528)"><path d="M125.93 41.45 C131.1 47.15, 139.13 53.39, 144.76 57.89 M125.93 41.45 C132.34 47.78, 139.74 53.88, 144.76 57.89" stroke="#1e1e1e" stroke-width="2" fill="none"></path></g></g><mask></mask></svg>